<svg width="95" height="398" viewBox="0 0 95 398" fill="none" xmlns="http://www.w3.org/2000/svg">
<path d="M29.7346 182.731C23.9609 180.502 17.3784 179.563 11.6885 182.056C10.9354 182.379 10.1544 182.819 9.81966 183.611C9.26182 184.901 10.1265 186.339 11.0191 187.395C22.6779 201.62 41.5887 207.574 59.4117 206.489C63.5397 206.225 68.5324 205.404 71.6284 202.529C71.0984 199.831 68.8113 198.306 66.4126 197.162C59.4675 193.818 35.5082 184.989 29.7346 182.731Z" fill="#79E777"/>
<path d="M55.1999 207.721C36.9865 207.721 20.3907 200.564 10.2101 188.128C8.67605 186.25 8.22975 184.579 8.87127 183.141C9.37332 181.997 10.4332 181.411 11.2979 181.059C17.9362 178.155 25.1881 179.827 30.0971 181.733C31.3523 182.232 33.4999 183.024 36.1496 184.021C45.5771 187.6 61.3919 193.554 66.8588 196.164C69.2017 197.279 71.9909 199.009 72.6603 202.324C72.744 202.705 72.6045 203.116 72.3256 203.38C69.648 205.873 65.4642 207.252 59.4674 207.603C58.017 207.691 56.5945 207.721 55.1999 207.721ZM19.1356 181.675C16.7927 181.675 14.3661 182.056 12.0789 183.083C11.5769 183.317 10.9353 183.611 10.7401 184.08C10.4054 184.813 11.1305 185.898 11.7721 186.69C22.3152 199.567 40.1103 206.577 59.3279 205.404C64.4321 205.081 68.086 204.025 70.429 202.148C69.899 200.593 68.5044 199.391 65.9662 198.159C60.5831 195.578 44.8241 189.623 35.4245 186.074C32.7748 185.077 30.6271 184.256 29.3719 183.787C26.5548 182.672 22.9289 181.675 19.1356 181.675Z" fill="black"/>
<path d="M17.0996 196.751C16.5417 181.91 20.0282 166.892 17.1833 152.344C15.7329 144.894 12.6647 137.913 10.796 130.551C8.89931 123.218 8.28568 115.035 11.5769 108.288C15.7607 99.665 25.2161 95.412 34.2532 93.6521C43.2344 91.8922 53.0245 92.1269 60.8342 97.1132C67.1378 101.161 71.5447 108.142 73.2741 115.709C75.0034 123.277 74.1666 131.343 71.5448 138.617C70.457 141.638 69.0345 144.542 67.9188 147.563C61.1411 165.777 65.0738 186.251 63.3724 205.727C63.2609 207.105 63.0935 208.542 62.4799 209.774C61.7826 211.182 60.6111 212.238 59.4396 213.235C55.3395 216.814 50.9047 220.509 45.6052 221.096C41.282 221.565 36.9587 219.806 33.2491 217.43C26.1366 212.825 17.4622 206.401 17.0996 196.751Z" fill="#79E777"/>
<path d="M25.2998 144.043L7.14207 19.0331C6.3332 13.3722 9.79186 8.23921 14.8682 7.53526L61.8104 1.14106C66.8868 0.437113 71.6842 4.45549 72.521 10.1164L90.6787 135.126C91.4875 140.787 88.0289 145.92 82.9525 146.624L36.0103 153.018C30.9061 153.722 26.1366 149.703 25.2998 144.043Z" fill="#ACD4F7"/>
<path d="M34.8666 154.191C29.7066 154.191 25.1044 149.968 24.2677 144.219L6.10994 19.2093C5.66367 16.0709 6.36097 12.9911 8.11817 10.5566C9.73591 8.29815 12.1067 6.83159 14.7286 6.47961L61.6709 0.0854156C67.3051 -0.677195 72.6324 3.75181 73.5528 9.97002L91.7105 134.98C92.1568 138.118 91.4595 141.198 89.7023 143.632C88.0846 145.891 85.7138 147.357 83.0919 147.709L36.1496 154.103C35.7033 154.162 35.285 154.191 34.8666 154.191ZM26.3317 143.867C27.0568 148.912 31.3244 152.52 35.8708 151.904L82.813 145.509C84.9049 145.216 86.7457 144.072 88.0288 142.283C89.4513 140.318 90.0091 137.825 89.6466 135.273L71.4888 10.2633C70.7636 5.21837 66.4961 1.61064 61.9497 2.22659L15.0075 8.62079C12.9156 8.9141 11.0747 10.058 9.79171 11.8472C8.36922 13.8124 7.81133 16.3056 8.17392 18.8574L26.3317 143.867Z" fill="black"/>
<path d="M23.8493 133.983L7.92303 24.255L73.3019 15.3677L89.2282 125.066L23.8493 133.983Z" fill="#79E777"/>
<path d="M23.8492 135.068C23.3472 135.068 22.9009 134.687 22.8172 134.13L6.89093 24.4309C6.83514 24.1376 6.91884 23.8443 7.08619 23.6096C7.25354 23.375 7.50457 23.2283 7.78349 23.1697L73.1624 14.253C73.7202 14.1943 74.2501 14.5756 74.3338 15.1916L90.2602 124.89C90.316 125.184 90.2323 125.477 90.0649 125.711C89.8976 125.946 89.6466 126.093 89.3676 126.151L23.9887 135.068C23.933 135.068 23.8771 135.068 23.8492 135.068ZM9.12225 25.2229L24.7418 132.751L88.0288 124.128L72.4092 16.5995L9.12225 25.2229Z" fill="black"/>
<path d="M52.4386 139.203C51.9087 139.203 51.4624 138.793 51.4066 138.235C51.3229 137.619 51.7413 137.091 52.2992 137.003L64.0696 135.39C64.6275 135.302 65.1574 135.742 65.2411 136.329C65.3248 136.945 64.9064 137.473 64.3485 137.561L52.5781 139.174C52.5502 139.203 52.4944 139.203 52.4386 139.203Z" fill="black"/>
<g opacity="0.1294">
<path d="M68.9506 16.1589C66.7192 16.3935 64.46 16.5695 62.2286 16.8922C56.2039 17.6255 50.2072 18.4467 44.2104 19.3853C39.4966 20.0599 34.8108 20.9692 30.0134 21.2039C24.1839 21.7612 18.3266 22.1131 12.5809 23.1984C11.7999 23.3157 10.991 23.433 10.1543 23.4917C9.6522 23.521 9.12223 23.4917 8.73174 23.873C6.66773 25.2516 8.00654 29.5339 10.3774 29.1819C13.2502 29.0646 16.0394 28.39 18.8844 28.0967C22.2593 27.6274 25.6622 27.5101 29.065 27.1581C41.6722 25.5449 54.2794 23.9023 66.8308 21.8785C68.5043 21.6732 70.1779 21.4092 71.8514 21.1452C73.2739 21.1452 74.5569 20.1186 74.278 18.1241C73.5807 14.7217 70.8193 16.0122 68.9506 16.1589Z" fill="black"/>
</g>
<g opacity="0.1294">
<path d="M76.3979 93.2421C76.9279 93.0368 77.151 92.9488 76.3979 93.2421V93.2421Z" fill="black"/>
</g>
<g opacity="0.1294">
<path d="M53.6657 96.117C53.4983 96.029 53.3032 95.9117 53.2195 95.8823C53.3589 95.941 53.5262 96.029 53.6657 96.117Z" fill="black"/>
</g>
<g opacity="0.1294">
<path d="M53.9446 96.2629C53.8609 96.2042 53.7493 96.1749 53.6656 96.1162C53.8609 96.2335 54.0283 96.3215 53.9446 96.2629Z" fill="black"/>
</g>
<path d="M88.8377 112.835C90.4833 111.133 90.0649 113.157 91.2922 111.045C92.5194 108.934 93.2725 106.411 92.9936 103.889C92.6867 101.366 91.1806 98.873 88.9771 97.9931C86.2995 96.9371 83.4545 98.433 81.0558 99.9583C76.9557 102.569 72.9392 105.443 69.5364 109.08C68.2812 110.429 67.0261 112.424 67.835 114.213C68.2534 115.152 69.1738 115.738 70.0663 116.12C72.6603 117.176 75.6448 116.912 77.9598 115.386C78.9639 114.712 79.8564 113.832 80.8884 113.245C81.9204 112.659 83.5103 111.984 84.2076 110.957C86.2158 107.995 86.7737 105.707 88.8377 112.835Z" fill="#79E777"/>
<path d="M84.7377 100.898C86.3833 99.1964 88.0289 97.4366 89.2562 95.354C90.4834 93.2422 91.2365 90.7197 90.9576 88.1972C90.6508 85.6747 89.1446 83.1816 86.9412 82.3017C84.2635 81.2457 81.4186 82.7416 79.0199 84.2669C74.9197 86.8773 70.9033 89.7518 67.5004 93.3889C66.2453 94.7381 64.9901 96.7326 65.799 98.5218C66.2174 99.4604 67.1378 100.047 68.0304 100.428C70.6243 101.484 72.7999 103.215 75.1149 101.719C76.1469 101.015 85.6581 96.2633 84.7377 100.898Z" fill="#79E777"/>
<path d="M81.6414 87.3757C83.287 85.6744 84.9327 83.9146 86.16 81.8321C87.3872 79.7202 88.1403 77.1977 87.8614 74.6753C87.5545 72.1528 86.0484 69.6596 83.8449 68.7797C81.1673 67.7238 78.3223 69.2197 75.9236 70.7449C71.8235 73.3554 67.807 76.2298 64.4042 79.8669C63.149 81.2161 61.8939 83.2106 62.7028 84.9998C63.1212 85.9384 63.428 88.9302 64.3205 89.2822C66.9145 90.3381 70.5126 87.669 72.8276 86.1731C73.8317 85.4985 82.534 82.7413 81.6414 87.3757Z" fill="#79E777"/>
<path d="M83.8449 68.7798C86.0484 69.5717 86.1879 60.0098 85.881 57.458C85.5742 54.9355 84.0681 52.4423 81.8646 51.5624C79.187 50.5065 76.342 52.0024 73.9433 53.5276C69.8431 56.1381 65.8267 59.0125 62.4238 62.6496C61.1687 63.9988 59.9135 65.9933 60.7224 67.7825C61.1408 68.7211 56.957 77.6378 57.8495 77.9898C60.4435 79.0457 63.9858 79.0164 66.3008 77.4912C67.3049 76.8459 77.9597 66.6973 83.8449 68.7798Z" fill="#79E777"/>
<path d="M71.266 118.672C70.2898 118.672 69.3974 118.467 68.5606 117.968C66.4129 116.707 65.9387 115.035 65.9108 113.862C65.7435 108.377 74.9478 101.66 77.7649 99.7534C80.9446 97.5829 84.71 95.3244 88.7544 96.2043C92.1293 96.9376 94.5559 100.428 94.5838 104.534C94.5838 108.553 91.9061 111.75 89.7585 114.302L89.619 114.478C89.2285 114.918 88.587 114.976 88.1408 114.566C87.7224 114.155 87.6666 113.48 88.0571 113.011L88.1965 112.835C90.2326 110.43 92.5198 107.731 92.5198 104.534C92.5198 101.513 90.7347 98.8441 88.3639 98.3455C85.0726 97.6416 81.8929 99.5481 78.9363 101.601C73.609 105.238 67.947 110.606 68.0306 113.803C68.0585 114.712 68.5884 115.446 69.6204 116.062C73.358 118.291 80.6936 111.662 84.2359 108.465C84.6264 108.113 84.9611 107.79 85.2679 107.526C85.7142 107.145 86.3836 107.204 86.7462 107.673C87.1088 108.142 87.0529 108.846 86.6066 109.227C86.2998 109.491 85.9651 109.814 85.5747 110.137C82.0603 113.275 76.0635 118.672 71.266 118.672Z" fill="black"/>
<path d="M62.3683 95.7932C62.1731 95.7932 61.9778 95.7932 61.7825 95.7639C60.4158 95.6172 59.3839 94.9719 58.8818 93.916C57.9335 92.0095 58.5192 85.4393 63.0098 79.7197C67.4446 74.0295 74.8918 67.7819 80.8049 67.5473C85.0724 67.4006 87.248 69.2485 88.3079 70.8617C90.2882 73.8241 90.2882 78.5758 88.3358 83.5914C88.1127 84.1487 87.499 84.4127 86.969 84.178C86.4391 83.9434 86.1881 83.2981 86.4112 82.7408C88.0569 78.4878 88.1405 74.4108 86.6064 72.0936C85.4907 70.4217 83.5662 69.6298 80.8886 69.7178C75.868 69.9231 68.9229 75.584 64.6554 81.0689C60.5832 86.3192 60.3043 91.8921 60.7785 92.8601C60.9737 93.2414 61.392 93.4467 62.0336 93.5347C63.6234 93.6813 65.9385 92.7721 66.8032 91.6282C67.1658 91.1589 67.8073 91.0709 68.2814 91.4522C68.7277 91.8335 68.8114 92.5081 68.4488 93.0067C67.2215 94.6199 64.5718 95.7932 62.3683 95.7932Z" fill="black"/>
<path d="M67.3048 110.958C65.4361 110.958 62.87 110.195 61.838 108.084C61.1128 106.617 61.0012 104.798 61.4475 102.54C62.2006 98.8442 64.0136 95.1778 67.0259 91.3061C71.0145 86.1731 76.0072 82.7121 81.4182 81.3628C83.8448 80.7469 88.447 81.4215 91.1525 84.7652C92.8818 86.9064 94.3601 90.8661 91.6267 97.6416C91.4036 98.1989 90.79 98.4629 90.26 98.2283C89.7301 97.9936 89.479 97.3483 89.7021 96.791C91.5151 92.2447 91.4872 88.5783 89.5348 86.2025C87.5266 83.7093 83.7891 83.0347 81.8924 83.5333C76.9276 84.7946 72.3254 87.9623 68.6437 92.7433C65.8545 96.3511 64.1531 99.6948 63.4837 103.039C63.1211 104.769 63.2048 106.118 63.6789 107.086C64.5157 108.817 67.5558 108.934 68.1416 108.67C68.6715 108.465 69.2852 108.699 69.5083 109.257C69.7315 109.814 69.5362 110.43 69.0062 110.665C68.6436 110.841 68.03 110.958 67.3048 110.958Z" fill="black"/>
<path d="M60.4439 83.2106C58.603 83.2106 57.2921 82.096 56.79 81.5681C53.7498 78.5176 55.3117 73.2673 57.5988 69.6596L58.3798 68.4277C61.2527 63.852 64.2372 59.1297 68.1978 55.522C71.4891 52.5008 79.8846 47.6612 84.8494 51.9142C89.3679 55.7566 87.2759 62.0921 85.9092 66.3158C85.5466 67.4011 85.2119 68.457 85.0725 69.2196C84.9609 69.8062 84.4031 70.1875 83.8452 70.0702C83.2874 69.9529 82.9248 69.3663 83.0363 68.7797C83.2037 67.8704 83.5663 66.8145 83.9568 65.6119C85.2677 61.5642 86.9133 56.5192 83.5663 53.6448C79.9961 50.6237 73.1347 53.9674 69.5924 57.1938C65.8549 60.6256 62.9541 65.2306 60.137 69.6596L59.356 70.8915C57.8778 73.2087 56.009 77.7257 58.2404 79.9842C58.5751 80.3068 59.4676 81.0694 60.6112 81.0108C61.5595 80.9521 62.5357 80.3361 63.4562 79.1629C63.8188 78.6936 64.4882 78.6349 64.9344 79.0162C65.3807 79.3975 65.4366 80.1015 65.074 80.5708C63.763 82.2133 62.2847 83.1226 60.7227 83.2106C60.6112 83.2106 60.5275 83.2106 60.4439 83.2106Z" fill="black"/>
<path d="M21.2272 84.0015C24.6301 78.3406 34.6712 67.6054 29.5112 64.3496C26.8893 62.7071 20.4741 65.8455 18.3822 68.1627C14.7841 72.0931 7.58799 75.6715 4.96615 80.3938C3.98992 82.1537 0.196584 92.2729 1.45172 93.8275C2.12113 94.6487 2.09332 103.301 2.31645 104.357C13.1386 160.615 19.749 117.732 19.749 114.653C19.749 106.059 16.0114 92.7129 21.2272 84.0015Z" fill="#79E777"/>
<path d="M17.0714 213.293C16.5136 213.293 16.0394 212.824 16.0394 212.208C15.6768 197.191 16.2347 182.789 16.8483 167.566L16.9041 166.217C17.4898 151.434 12.9434 140.229 8.59229 129.348C6.27726 123.599 4.1016 118.172 2.84646 112.57L2.48394 110.957C0.47571 102.128 -1.58836 93.0063 1.81447 84.7642C4.04583 79.3673 8.36914 75.3196 12.5808 71.6238L13.1665 71.0959C15.7326 68.8667 19.2191 65.8163 22.1199 64.291C25.8016 62.3552 28.5351 61.9445 30.2086 63.0591C30.9338 63.5284 31.7705 64.5257 31.7426 66.5789C31.5753 73.9703 29.6786 76.1995 26.1921 80.2472C25.4391 81.1271 24.5465 82.1537 23.5981 83.327C18.4381 89.7212 19.7491 100.486 21.5621 110.957C21.6736 111.544 21.2831 112.13 20.7253 112.248C20.1674 112.365 19.6096 111.954 19.498 111.368C17.6013 100.368 16.2626 89.0465 22.0083 81.9191C22.9846 80.7165 23.8492 79.6899 24.6302 78.7806C28.0609 74.7916 29.4833 73.149 29.6228 66.5495C29.6507 65.347 29.2045 65.0536 29.065 64.9363C28.7024 64.7017 27.2241 64.0857 23.0403 66.2856C20.3627 67.6934 16.9599 70.6559 14.4775 72.8264L13.8918 73.3544C9.68006 77.0208 5.74731 80.7165 3.71119 85.6735C0.587285 93.2409 2.56761 102.011 4.49216 110.488L4.85469 112.101C6.08194 117.527 8.22968 122.865 10.4889 128.526C14.7564 139.086 19.5817 151.082 18.968 166.334L18.9123 167.683C18.3266 182.877 17.7687 197.22 18.1034 212.179C18.1313 212.765 17.685 213.264 17.0714 213.293C17.0993 213.293 17.0993 213.293 17.0714 213.293Z" fill="black"/>
<path d="M64.1816 213.118C63.6238 213.118 63.1496 212.648 63.1217 212.032C62.9265 196.751 62.9822 181.264 63.2891 166.012C63.4006 159.09 64.6278 153.546 67.0823 148.589C67.3612 148.061 67.9749 147.856 68.5048 148.12C69.0069 148.413 69.2022 149.058 68.9511 149.616C66.6082 154.338 65.4925 159.383 65.381 166.07C65.0741 181.293 64.9905 196.751 65.2136 212.003C65.2415 212.619 64.7952 213.118 64.1816 213.118C64.2095 213.118 64.2095 213.118 64.1816 213.118Z" fill="black"/>
<path d="M81.9207 436.856C79.5778 358.043 73.4973 280.198 71.1544 201.298C49.7333 207.78 25.6346 201.474 9.73615 185.283C10.2103 220.949 9.93139 256.411 9.73615 292.107C9.45723 340.093 8.5647 388.108 3.73938 435.83L81.9207 436.856Z" fill="#79E777"/>
<path d="M81.9204 437.971C81.3626 437.971 80.8884 437.502 80.8884 436.915C79.7169 397.523 77.5693 357.721 75.5053 319.238C73.4692 281.137 71.3493 241.775 70.15 202.764C49.5099 208.484 26.6106 202.706 10.8237 187.864C11.2142 219.102 11.019 250.691 10.8516 281.284L10.7958 292.136C10.489 345.871 9.34541 390.894 4.79901 435.976C4.74323 436.592 4.21327 437.032 3.65543 436.944C3.06969 436.886 2.65135 436.328 2.73503 435.742C7.28143 390.777 8.42498 345.812 8.73179 292.136L8.78755 281.284C8.98279 249.87 9.17807 217.371 8.73179 185.342C8.73179 184.902 8.98285 184.491 9.37334 184.315C9.76383 184.139 10.21 184.227 10.5168 184.52C26.1364 200.447 49.8446 206.636 70.9031 200.271C71.2099 200.183 71.5446 200.242 71.7956 200.447C72.0466 200.652 72.214 200.975 72.214 201.298C73.3855 240.748 75.5332 280.58 77.5972 319.121C79.6612 357.633 81.8089 397.465 82.9803 436.856C83.0082 437.472 82.5341 437.971 81.9762 438C81.9483 437.971 81.9483 437.971 81.9204 437.971Z" fill="black"/>
<g opacity="0.1294">
<path d="M68.2252 114.829C68.3089 114.653 68.4206 114.506 68.56 114.389C68.9784 114.008 69.4805 113.714 70.0383 113.685C70.2056 113.656 70.3729 113.597 70.4845 113.538C73.5247 112.013 73.6642 111.632 77.2344 108.845C79.3263 107.349 81.4461 105.59 83.9843 105.062C85.9088 104.651 88.168 104.739 89.5905 106.352C90.4831 107.437 91.292 109.168 91.1246 110.634C90.9852 112.394 89.4232 113.186 88.0565 112.981C88.1402 114.888 88.698 116.002 88.8654 119.346C88.8375 120.519 89.1721 121.81 88.698 122.924C87.387 126.063 83.1475 124.625 83.4822 121.282C83.4822 121.194 83.4822 121.135 83.4543 121.076C83.1754 119.082 83.1196 118.847 82.7849 116.823C79.2147 119.317 74.8357 121.34 70.6519 120.196C69.3131 119.639 67.5001 118.906 67.3328 117.175C67.1933 116.295 67.5837 115.386 68.2252 114.829Z" fill="black"/>
</g>
<g opacity="0.1294">
<path d="M14.6729 100.134C14.0593 94.0623 14.3103 87.6388 17.0995 82.1832C20.335 75.9943 23.3194 73.5305 25.9692 69.3361C25.9971 69.2481 26.0529 69.1895 26.0808 69.1308C26.1923 68.8082 26.276 68.5149 26.3597 68.1922C26.4434 67.6936 26.5828 67.195 26.9175 66.8137C28.3958 64.6725 31.4918 65.9924 31.5755 68.3389C32.0775 68.9548 32.3006 69.7468 32.0496 70.6854C31.3523 73.9411 30.4319 77.1382 29.1489 80.1887C27.5869 83.5031 25.8855 86.7589 24.3793 90.1026C23.5425 91.6572 21.5343 99.8992 21.5064 102.832C21.2275 104.827 21.3112 103.859 21.1996 105.384C21.1996 105.795 21.1717 106.235 21.0044 106.587C20.9765 107.32 20.7813 107.965 20.2513 108.435C20.2513 108.64 20.2792 108.816 20.2792 109.021C20.7533 110.106 20.586 111.221 21.0881 113.392C22.0922 123.13 23.9052 133.102 25.0488 141.901C25.4671 144.512 25.7181 145.744 26.3875 147.122C27.7263 147.533 28.1448 149.058 28.8142 150.173C29.0931 150.672 29.3162 151.023 29.4836 151.287C29.7346 151.581 29.9856 151.874 30.2366 152.197C30.655 152.637 31.0734 153.106 31.2965 153.663C31.4918 153.722 31.7428 153.781 32.0775 153.869C32.2728 153.898 32.4122 153.927 32.4959 153.957C32.6353 153.986 32.8027 153.986 32.9422 154.015C33.249 154.045 33.5279 154.103 33.8068 154.133C33.5837 154.103 32.7748 153.986 33.2769 154.045C36.4008 154.338 39.5526 153.957 42.6486 153.546C45.6052 153.077 45.4099 153.282 49.2311 152.461C53.9169 151.375 58.3797 149.322 63.0934 148.325C64.6275 147.797 66.6078 147.68 67.6119 149.264C69.0623 151.023 68.0583 154.074 65.9385 154.602C61.2805 155.687 56.8177 157.535 52.2156 158.826C49.1753 159.618 46.0515 160.028 42.9276 160.351C36.8471 161.055 28.089 160.233 25.8018 155.394C25.6624 155.13 25.6065 154.837 25.6065 154.543C25.3276 154.133 25.0487 153.693 24.7698 153.282C24.1004 152.49 23.4589 151.669 22.8732 150.818C20.4745 146.77 20.3629 141.872 19.6098 137.296C18.3825 129.905 17.239 122.514 16.5696 115.034C16.5696 114.975 16.5416 114.887 16.5416 114.799C16.4022 113.861 16.2906 112.922 16.179 111.984C15.7049 111.162 15.7886 110.106 15.7049 109.139C15.677 108.347 15.5655 107.437 15.7886 106.675C15.7049 106.352 15.6492 106 15.6492 105.648C15.3424 103.8 14.8403 101.982 14.6729 100.134Z" fill="black"/>
</g>
<g opacity="0.1294">
<path d="M14.0313 180.678C14.896 180.912 15.5096 181.616 16.1512 182.262C17.8247 183.933 16.7369 182.907 18.4104 184.227C25.9134 189.389 30.8502 193.231 38.6042 195.226C43.5132 196.517 49.3705 196.282 56.2877 196.429C59.3837 196.341 62.4798 196.077 65.5758 196.487C66.831 196.663 68.2534 196.546 69.1738 197.602C71.0984 199.508 69.648 203.204 66.9983 203.116C63.0934 202.647 59.2164 203.057 55.3394 203.321C51.574 203.497 47.8085 203.351 44.071 202.852C38.0184 202.177 32.2169 200.036 26.8338 197.103C22.4826 194.581 12.9993 188.274 11.7721 186.603C8.67609 184.667 10.5448 179.739 14.0313 180.678Z" fill="black"/>
</g>
<g opacity="0.1294">
<path d="M59.6065 95.2653C59.718 95.0013 59.9133 94.5026 60.0527 94.1507C60.1364 93.916 60.2201 93.6814 60.3038 93.4467C60.0248 92.0975 60.6664 90.5429 62.0889 90.191C62.3399 90.0736 61.7263 90.3669 61.5869 90.4256C62.0052 90.2203 62.4236 90.0736 62.8419 89.8976C63.0093 89.8097 63.2324 89.6923 63.4277 89.575C63.6229 89.487 63.8461 89.311 64.0134 89.1937C68.2809 85.2927 72.5762 81.2156 77.9036 79.0451C79.5771 78.2825 81.3902 78.0185 83.1752 77.8425C84.3746 77.8425 85.7134 77.4612 86.857 77.9599C89.2836 78.9278 88.5026 82.9168 85.9086 82.8582C80.888 82.7408 77.5968 84.6767 72.1858 88.8711C69.9823 90.6896 68.0577 92.9188 65.6311 94.4147C65.6033 94.5613 65.5754 94.7373 65.5475 94.884C65.3801 95.3533 64.6549 97.1425 64.4318 97.6997C64.376 97.8464 64.3202 97.9637 64.2645 98.1104C63.874 99.8702 62.5073 101.278 60.6943 100.75C58.1282 99.8409 58.5466 97.3771 59.6065 95.2653Z" fill="black"/>
</g>
<g opacity="0.1294">
<path d="M59.6625 76.963C61.7265 75.9364 60.8618 76.3763 63.2327 74.4112C68.0859 70.3048 73.0785 65.8171 79.2984 64.2626C80.9719 64.0572 83.0639 63.2653 84.4585 64.6732C86.0762 66.2571 84.849 69.3369 82.6455 69.2489C82.1992 68.9262 77.9038 70.3048 77.8201 70.5394C75.4772 71.654 73.3575 73.1792 71.3213 74.8511C71.4887 74.7045 71.6839 74.5578 71.8513 74.4112C68.8947 76.5817 66.4681 79.5148 63.3163 81.392C62.0054 82.0373 60.4156 82.9172 59.0489 82.0373C57.0685 80.8933 57.459 77.5203 59.6625 76.963Z" fill="black"/>
</g>
<g opacity="0.1294">
<path d="M63.2047 109.55C62.619 108.787 62.3959 107.702 63.0095 106.499C63.6789 104.681 65.2409 104.299 66.4681 104.827C67.277 104.006 68.3369 103.302 69.0342 102.481C73.4969 98.6092 78.0991 94.5028 83.8448 92.9776C85.351 92.5669 86.9129 92.4496 88.447 92.4496C89.3116 92.4203 90.2321 92.5083 90.8737 93.2122C92.4077 94.7374 91.2641 97.6706 89.1443 97.6119C83.9006 97.0546 78.5732 101.308 74.6683 104.622C74.2499 105.003 73.8037 105.385 73.3853 105.766C72.2696 106.793 71.2656 107.936 70.122 108.963C69.5363 109.608 68.7832 110.107 67.9185 110.107C67.6117 110.107 67.3327 110.048 67.0817 109.96C67.0538 109.99 66.9981 110.019 66.9423 110.078C67.4722 110.459 67.9185 110.987 68.0858 111.662C68.7553 113.891 66.1892 115.944 64.3204 114.712C64.0973 114.565 63.651 114.213 63.3442 113.979C62.8421 113.627 62.4238 113.069 62.2843 112.453C61.9496 111.339 62.3959 110.195 63.2047 109.55Z" fill="black"/>
</g>
</svg>
